<?xml version="1.0" standalone="no"?>
<!DOCTYPE svg PUBLIC "-//W3C//DTD SVG 20010904//EN"
        "http://www.w3.org/TR/2001/REC-SVG-20010904/DTD/svg10.dtd">
<svg version="1.0" xmlns="http://www.w3.org/2000/svg"
     width="4000.000000pt" height="4000.000000pt" viewBox="0 0 4000.000000 4000.000000"
     preserveAspectRatio="xMidYMid meet">
    <metadata>
        Created by potrace 1.11, written by Peter Selinger 2001-2013
    </metadata>
    <g transform="translate(0.000000,4000.000000) scale(0.100000,-0.100000)"
       fill="#000000" stroke="none">
        <path d="M19527 39684 c-2 -2 -77 -6 -168 -9 -90 -3 -191 -7 -224 -10 -33 -2
-112 -6 -175 -10 -63 -3 -140 -8 -170 -10 -30 -2 -93 -7 -140 -10 -47 -3 -101
-7 -120 -10 -19 -2 -73 -7 -120 -11 -47 -3 -103 -7 -125 -10 -22 -2 -67 -6
-100 -9 -33 -3 -71 -8 -85 -10 -14 -2 -59 -7 -100 -10 -41 -4 -86 -8 -100 -10
-14 -2 -47 -6 -75 -9 -27 -4 -70 -9 -95 -12 -25 -3 -56 -7 -70 -9 -14 -3 -47
-7 -75 -9 -54 -6 -123 -15 -170 -23 -16 -2 -43 -6 -58 -8 -15 -2 -46 -7 -67
-10 -22 -3 -57 -7 -78 -10 -21 -3 -47 -7 -58 -9 -12 -2 -45 -7 -74 -11 -29 -4
-62 -9 -74 -11 -35 -7 -69 -13 -116 -19 -25 -3 -54 -9 -65 -12 -11 -3 -31 -7
-45 -8 -14 -2 -79 -13 -145 -25 -66 -12 -131 -24 -145 -26 -14 -3 -61 -12
-105 -20 -44 -8 -90 -17 -102 -20 -13 -2 -33 -6 -45 -8 -13 -3 -81 -17 -153
-31 -71 -15 -134 -28 -140 -29 -5 -1 -55 -12 -110 -25 -55 -12 -131 -29 -170
-37 -38 -9 -77 -18 -85 -22 -8 -3 -24 -7 -35 -8 -11 -1 -54 -12 -95 -23 -41
-11 -86 -22 -100 -25 -21 -4 -434 -110 -465 -120 -29 -8 -101 -29 -110 -30 -5
-2 -37 -10 -70 -20 -33 -10 -100 -29 -150 -43 -97 -27 -307 -91 -420 -128 -65
-22 -304 -98 -315 -100 -3 -1 -12 -4 -20 -7 -56 -21 -168 -60 -180 -63 -8 -2
-67 -22 -130 -45 -63 -23 -119 -43 -125 -44 -5 -2 -21 -8 -35 -13 -14 -6 -45
-18 -70 -26 -86 -30 -265 -98 -297 -112 -17 -8 -33 -15 -36 -15 -3 0 -18 -5
-34 -12 -15 -6 -30 -12 -33 -12 -14 -3 -215 -85 -282 -115 -26 -11 -52 -21
-58 -21 -6 0 -18 -4 -28 -10 -20 -12 -272 -121 -287 -124 -5 -1 -46 -19 -89
-39 -43 -20 -81 -37 -84 -37 -3 0 -33 -13 -66 -29 -63 -30 -151 -70 -221 -101
-102 -45 -548 -262 -555 -271 -3 -3 -17 -9 -32 -13 -16 -3 -28 -11 -28 -16 0
-6 -5 -10 -12 -10 -12 0 -138 -60 -148 -70 -5 -5 -158 -85 -300 -157 -30 -15
-57 -31 -60 -34 -7 -8 -222 -123 -237 -127 -7 -2 -13 -7 -13 -10 0 -4 -20 -16
-45 -27 -25 -11 -45 -23 -45 -27 0 -5 -4 -8 -10 -8 -5 0 -55 -27 -111 -60 -55
-33 -103 -60 -105 -60 -2 0 -28 -16 -58 -35 -30 -19 -60 -35 -66 -35 -5 0 -10
-4 -10 -8 0 -4 -19 -18 -43 -30 -23 -12 -71 -40 -106 -62 -34 -22 -67 -40 -72
-40 -5 0 -9 -4 -9 -10 0 -5 -5 -10 -10 -10 -9 0 -152 -88 -176 -109 -7 -5 -14
-8 -16 -5 -3 2 -13 -5 -23 -16 -10 -11 -22 -20 -27 -20 -4 0 -56 -31 -114 -70
-58 -38 -109 -70 -114 -70 -5 0 -10 -4 -12 -9 -1 -5 -24 -22 -50 -37 -26 -16
-112 -74 -193 -129 -80 -55 -154 -104 -163 -110 -9 -5 -19 -12 -22 -16 -3 -3
-34 -25 -70 -50 -36 -24 -69 -48 -75 -52 -5 -4 -73 -53 -150 -109 -77 -55
-143 -105 -146 -110 -3 -5 -9 -8 -12 -6 -3 1 -18 -9 -35 -23 -16 -15 -42 -35
-58 -45 -16 -10 -34 -23 -40 -29 -6 -5 -27 -21 -47 -35 -20 -14 -37 -28 -37
-32 0 -5 -4 -8 -10 -8 -5 0 -18 -7 -27 -15 -22 -17 -113 -89 -218 -170 -43
-33 -87 -68 -99 -77 -11 -10 -25 -21 -31 -25 -48 -38 -171 -139 -175 -143 -3
-3 -14 -13 -26 -21 -12 -8 -43 -33 -70 -56 -27 -23 -83 -70 -124 -105 -41 -35
-76 -66 -78 -70 -2 -5 -8 -8 -12 -8 -5 0 -22 -12 -38 -27 -53 -51 -112 -102
-112 -96 0 3 -8 -4 -17 -15 -10 -11 -63 -59 -118 -107 -55 -48 -140 -124 -189
-169 -49 -44 -101 -91 -115 -104 -165 -148 -981 -952 -966 -952 2 0 -17 -22
-43 -48 -63 -66 -221 -236 -269 -291 -21 -24 -56 -63 -78 -87 -22 -23 -56 -61
-75 -84 -19 -23 -59 -68 -88 -100 -29 -32 -54 -62 -55 -66 -1 -4 -20 -25 -42
-48 -22 -23 -51 -56 -65 -74 -14 -18 -36 -45 -50 -61 -50 -55 -80 -91 -80 -96
0 -2 -15 -20 -32 -40 -18 -19 -44 -49 -58 -66 -14 -18 -41 -51 -60 -74 -19
-24 -46 -58 -60 -76 -14 -18 -34 -41 -44 -51 -11 -10 -16 -18 -10 -18 5 0 4
-4 -3 -8 -10 -7 -79 -90 -133 -162 -41 -55 -75 -95 -82 -98 -5 -2 -8 -10 -8
-17 0 -7 -3 -15 -7 -17 -5 -1 -25 -25 -45 -53 -21 -27 -46 -61 -57 -75 -20
-27 -85 -114 -113 -152 -65 -88 -128 -175 -135 -183 -4 -6 -24 -33 -42 -60
-19 -28 -37 -52 -40 -55 -4 -3 -10 -13 -16 -22 -5 -9 -61 -90 -123 -178 -61
-89 -112 -166 -112 -171 0 -5 -4 -9 -10 -9 -5 0 -10 -6 -10 -14 0 -8 -3 -16
-8 -18 -10 -4 -182 -265 -182 -276 0 -6 -7 -12 -15 -16 -8 -3 -15 -12 -15 -21
0 -8 -4 -15 -10 -15 -5 0 -10 -5 -10 -10 0 -6 -28 -54 -63 -108 -35 -53 -66
-104 -70 -112 -4 -8 -43 -71 -87 -140 -44 -69 -85 -137 -91 -152 -6 -16 -15
-28 -21 -28 -5 0 -6 -4 -3 -10 3 -5 2 -10 -3 -10 -5 0 -17 -18 -28 -40 -10
-22 -22 -40 -26 -40 -5 0 -8 -4 -8 -10 0 -5 -27 -55 -60 -110 -33 -55 -60
-103 -60 -105 0 -3 -18 -34 -40 -70 -22 -36 -40 -70 -40 -75 0 -6 -5 -10 -12
-10 -6 0 -8 -3 -5 -7 4 -3 3 -11 -2 -17 -14 -16 -81 -137 -94 -168 -6 -16 -15
-28 -19 -28 -4 0 -8 -5 -8 -10 0 -6 -18 -42 -39 -80 -22 -37 -37 -71 -33 -74
3 -3 1 -6 -4 -6 -5 0 -18 -20 -29 -45 -11 -25 -23 -45 -27 -45 -5 0 -8 -9 -8
-20 0 -11 -4 -20 -9 -20 -5 0 -12 -13 -16 -30 -4 -16 -13 -34 -22 -38 -8 -5
-14 -12 -13 -16 4 -12 -22 -66 -31 -66 -5 0 -9 -5 -9 -11 0 -6 -54 -119 -119
-252 -117 -239 -140 -286 -248 -522 -31 -66 -70 -152 -88 -190 -18 -39 -36
-82 -40 -95 -4 -14 -11 -27 -16 -30 -5 -3 -10 -15 -12 -25 -2 -11 -11 -36 -19
-55 -31 -69 -98 -226 -103 -240 -1 -3 -6 -16 -12 -30 -6 -14 -21 -50 -33 -80
-12 -30 -27 -68 -34 -85 -8 -16 -26 -61 -41 -100 -15 -38 -31 -79 -35 -90 -27
-64 -82 -206 -84 -217 -1 -7 -7 -23 -14 -35 -7 -12 -12 -30 -12 -40 0 -11 -4
-23 -9 -29 -15 -16 -146 -387 -261 -744 -39 -118 -75 -228 -81 -245 -5 -16
-12 -37 -14 -45 -2 -8 -25 -82 -50 -165 -25 -82 -47 -157 -49 -165 -2 -8 -5
-22 -8 -30 -3 -8 -14 -42 -23 -75 -42 -152 -56 -201 -60 -218 -2 -10 -7 -27
-10 -37 -3 -10 -8 -27 -10 -37 -2 -10 -9 -34 -14 -53 -48 -183 -164 -655 -187
-765 -2 -11 -6 -31 -10 -45 -3 -14 -7 -34 -9 -45 -2 -11 -6 -29 -9 -40 -14
-62 -26 -114 -30 -140 -3 -16 -8 -41 -11 -55 -3 -14 -8 -36 -11 -50 -5 -30
-13 -67 -20 -100 -6 -32 -22 -117 -28 -153 -3 -15 -7 -35 -10 -45 -3 -9 -7
-35 -11 -57 -3 -22 -7 -47 -10 -55 -2 -8 -6 -31 -9 -50 -3 -19 -8 -46 -11 -60
-2 -14 -7 -41 -9 -60 -3 -19 -8 -46 -10 -60 -9 -46 -35 -205 -41 -250 -3 -25
-9 -58 -11 -75 -3 -16 -8 -43 -10 -60 -2 -16 -6 -41 -8 -55 -2 -14 -7 -47 -10
-75 -10 -76 -17 -127 -21 -155 -6 -37 -44 -338 -49 -390 -11 -102 -17 -157
-21 -190 -4 -31 -11 -102 -20 -205 -2 -16 -6 -68 -10 -115 -3 -47 -8 -95 -10
-107 -2 -13 -7 -69 -10 -125 -4 -57 -8 -125 -10 -153 -2 -27 -6 -99 -10 -160
-3 -60 -8 -137 -10 -170 -13 -221 -19 -519 -20 -985 0 -550 7 -822 30 -1195 3
-49 7 -124 10 -165 4 -80 14 -203 20 -260 2 -19 7 -71 10 -115 3 -44 7 -96 9
-115 2 -19 7 -66 11 -105 7 -81 13 -144 20 -200 2 -22 7 -62 10 -90 3 -27 7
-66 10 -85 2 -19 7 -60 10 -90 4 -30 8 -62 10 -70 2 -8 7 -44 10 -80 4 -36 9
-72 10 -81 2 -9 6 -40 10 -70 3 -30 8 -61 10 -69 2 -8 7 -40 10 -70 3 -30 11
-82 17 -115 5 -33 11 -69 13 -80 6 -45 17 -115 31 -200 8 -49 17 -103 20 -120
3 -16 7 -37 9 -45 2 -8 7 -33 10 -55 2 -22 7 -51 10 -65 3 -14 8 -40 10 -57 3
-18 14 -74 24 -125 11 -51 23 -113 27 -138 9 -52 7 -44 19 -95 5 -22 10 -44
10 -50 1 -5 6 -28 10 -50 11 -50 10 -42 20 -95 10 -53 12 -59 15 -62 2 -4 6
-22 15 -68 5 -30 10 -52 30 -140 25 -108 70 -296 91 -375 14 -55 27 -107 29
-115 1 -8 8 -35 15 -60 7 -25 14 -53 15 -62 2 -9 13 -52 26 -95 12 -43 22 -82
24 -88 1 -5 7 -28 13 -50 6 -22 12 -44 13 -50 1 -5 5 -20 10 -33 5 -12 11 -33
13 -45 6 -27 57 -201 92 -316 15 -46 27 -89 28 -95 1 -6 7 -24 13 -41 6 -16
32 -97 58 -180 67 -214 175 -537 210 -625 7 -19 25 -69 40 -110 15 -41 31 -84
36 -95 6 -12 11 -27 13 -35 2 -8 8 -28 14 -43 7 -16 12 -30 12 -33 0 -4 65
-174 80 -209 29 -66 74 -191 72 -197 -1 -5 2 -8 8 -8 5 0 10 -9 10 -19 0 -11
4 -23 10 -26 5 -3 10 -13 10 -21 0 -8 11 -37 25 -66 14 -28 25 -56 25 -60 0
-5 9 -30 21 -56 12 -26 27 -60 34 -77 70 -166 93 -218 136 -313 16 -35 29 -65
29 -67 0 -2 17 -39 37 -82 20 -43 37 -80 38 -83 0 -3 16 -36 35 -75 18 -38 34
-72 35 -75 4 -16 151 -326 175 -370 5 -8 47 -91 95 -185 149 -296 282 -542
412 -770 12 -22 28 -51 33 -65 6 -13 14 -27 18 -30 4 -3 14 -19 23 -35 46 -86
55 -100 61 -103 5 -2 8 -8 8 -12 0 -5 20 -43 45 -83 25 -41 45 -80 45 -86 0
-6 3 -11 8 -11 4 0 19 -21 32 -47 14 -26 29 -52 33 -58 5 -5 49 -75 98 -155
48 -80 102 -165 117 -190 16 -25 46 -72 67 -105 61 -96 419 -629 443 -660 4
-5 34 -48 67 -95 66 -94 64 -92 100 -136 14 -18 25 -36 25 -42 0 -6 3 -12 8
-14 4 -1 45 -55 91 -118 46 -63 88 -116 93 -118 4 -2 8 -8 8 -13 0 -5 21 -35
46 -67 52 -65 58 -73 99 -127 16 -22 34 -45 40 -52 5 -6 20 -24 32 -40 12 -15
35 -46 52 -68 17 -22 38 -49 48 -60 10 -11 26 -32 35 -46 9 -14 23 -33 31 -40
8 -8 50 -59 94 -114 45 -55 91 -110 102 -122 12 -12 21 -25 21 -29 0 -4 10
-16 23 -28 12 -12 38 -42 58 -66 20 -25 47 -56 58 -70 12 -14 32 -36 43 -50
47 -55 170 -197 208 -239 14 -15 48 -55 77 -88 29 -33 67 -75 85 -95 18 -19
57 -61 87 -94 156 -172 306 -328 586 -608 295 -296 408 -405 595 -576 45 -41
100 -92 121 -112 21 -21 41 -38 43 -38 2 0 19 -15 38 -33 33 -31 118 -107 208
-184 24 -21 51 -45 60 -53 9 -8 43 -37 75 -64 33 -27 65 -54 70 -60 6 -6 38
-34 72 -61 35 -28 63 -53 63 -57 0 -5 5 -8 11 -8 6 0 16 -6 23 -12 13 -13 80
-70 123 -105 12 -10 34 -27 49 -38 15 -11 35 -27 43 -36 9 -8 34 -29 56 -45
22 -16 42 -32 45 -35 4 -6 312 -245 368 -287 104 -76 181 -135 199 -152 12
-11 25 -20 28 -20 5 0 215 -149 225 -160 17 -18 576 -400 586 -400 3 0 12 -6
19 -12 25 -23 40 -33 67 -47 15 -8 37 -22 47 -33 11 -10 23 -18 27 -18 3 0 45
-26 92 -57 48 -32 101 -65 117 -73 17 -8 36 -20 42 -26 7 -7 37 -26 65 -44 29
-17 62 -36 72 -43 129 -80 158 -97 166 -97 6 0 10 -4 10 -8 0 -5 16 -14 35
-22 19 -8 35 -17 35 -22 0 -4 7 -8 15 -8 8 0 15 -4 15 -10 0 -5 6 -10 13 -10
7 0 19 -6 26 -12 6 -7 15 -13 19 -13 4 0 42 -21 84 -48 41 -26 79 -47 83 -47
4 0 19 -8 33 -19 15 -10 63 -37 107 -61 44 -24 85 -46 90 -50 8 -6 52 -30 150
-84 11 -6 23 -15 27 -21 4 -5 8 -7 8 -3 0 4 27 -9 61 -28 33 -18 65 -34 70
-34 5 0 9 -4 9 -10 0 -5 9 -10 19 -10 11 0 21 -3 23 -7 2 -5 32 -23 68 -42
143 -73 621 -312 705 -351 241 -114 297 -140 300 -140 5 0 179 -80 207 -96 15
-8 29 -14 30 -14 3 1 61 -23 123 -50 11 -5 54 -23 95 -40 41 -18 89 -39 105
-47 17 -8 37 -16 45 -19 8 -2 132 -51 275 -109 143 -58 265 -105 270 -105 6 0
21 -6 35 -13 14 -7 48 -21 75 -31 58 -21 151 -55 180 -66 42 -17 275 -99 295
-105 29 -8 135 -45 155 -54 51 -22 589 -191 608 -191 9 0 18 -4 21 -9 3 -5 18
-11 33 -14 16 -3 60 -14 98 -26 39 -12 81 -24 95 -27 14 -3 45 -12 70 -20 25
-9 52 -17 60 -19 14 -3 48 -12 190 -51 198 -55 736 -188 810 -200 14 -3 32 -7
40 -10 25 -9 640 -136 720 -149 14 -2 52 -8 85 -14 33 -6 75 -14 94 -17 18 -3
43 -8 55 -10 11 -2 35 -6 51 -9 17 -3 44 -7 60 -10 17 -3 46 -8 65 -11 19 -3
60 -9 90 -14 30 -5 69 -12 85 -14 17 -3 50 -8 75 -11 25 -3 56 -7 70 -10 14
-3 36 -7 50 -9 14 -3 52 -8 85 -11 33 -3 67 -8 75 -10 8 -2 38 -6 65 -10 28
-3 61 -8 75 -10 14 -2 50 -6 80 -9 30 -4 71 -9 90 -11 19 -3 53 -7 75 -10 22
-2 63 -6 90 -10 151 -17 191 -21 295 -30 41 -3 82 -8 90 -10 8 -2 58 -7 111
-10 53 -3 105 -7 115 -9 11 -2 66 -7 124 -11 58 -3 121 -8 140 -10 19 -2 96
-6 170 -10 74 -4 155 -8 180 -10 369 -27 1569 -27 2020 0 321 18 340 20 476
30 115 8 176 13 294 25 58 5 134 12 170 15 36 3 76 8 90 10 14 2 57 6 95 10
39 3 81 8 95 10 14 2 52 7 85 10 33 3 71 8 85 10 14 2 52 6 85 10 32 4 66 8
75 10 8 2 44 6 80 10 36 3 72 8 80 10 14 4 56 10 130 19 32 4 95 14 205 31 22
4 54 8 70 10 45 7 252 41 291 49 12 2 37 7 55 10 19 3 93 16 164 30 72 13 147
27 169 30 21 4 41 8 45 10 3 2 22 7 41 10 19 3 114 22 210 42 96 20 184 38
195 39 11 2 20 4 20 5 0 1 7 3 15 5 8 1 67 15 130 29 121 29 141 33 178 40 12
3 25 7 30 9 4 3 25 8 47 11 22 3 51 10 65 16 14 5 81 23 150 39 69 17 177 44
240 61 63 17 122 33 130 35 8 2 16 4 18 5 1 2 5 3 10 4 4 1 16 5 27 9 11 3 31
8 45 11 14 2 37 9 53 15 15 6 27 8 27 5 0 -4 7 -1 15 6 8 7 15 9 15 5 0 -4 7
-2 15 5 8 7 15 10 15 7 0 -3 21 2 48 10 47 15 134 41 162 48 28 7 405 126 420
132 8 3 17 7 20 8 4 1 99 30 130 40 3 1 12 4 20 8 28 10 255 88 270 92 20 5
176 61 220 79 19 8 76 29 125 47 50 17 104 37 120 44 17 7 156 62 310 123 154
61 298 119 320 128 22 10 42 18 45 19 14 4 183 76 250 107 25 11 63 28 85 38
22 9 63 28 90 41 28 12 52 23 55 24 5 1 104 47 200 93 30 14 57 26 60 27 17 2
678 331 696 346 8 6 14 8 14 5 0 -4 12 1 28 11 15 11 54 32 87 49 33 16 62 31
65 34 3 3 23 14 45 25 22 11 42 22 45 25 3 3 32 19 65 36 71 36 148 79 225
123 30 18 63 35 73 38 9 3 17 9 17 14 0 5 4 9 9 9 5 0 52 25 106 55 53 30 99
55 101 55 3 0 14 9 26 20 12 10 25 17 30 14 4 -3 8 0 8 5 0 6 5 11 11 11 6 0
30 14 54 30 24 17 46 30 49 30 3 0 49 27 103 60 54 33 105 64 113 69 8 5 64
40 123 78 59 37 116 73 126 78 10 6 36 22 57 37 22 14 109 71 194 126 85 56
160 105 165 110 6 4 37 26 70 47 33 22 61 43 63 47 2 5 10 8 17 8 7 0 15 3 17
8 5 10 66 52 77 52 5 0 11 4 13 8 2 4 48 39 103 77 55 37 105 73 110 79 6 6
40 31 78 56 37 25 67 48 67 52 0 5 6 8 13 8 7 0 26 11 42 26 17 14 73 57 125
96 52 38 106 79 120 89 14 11 48 36 75 57 28 20 54 43 58 49 4 7 13 13 20 13
7 0 29 16 49 35 20 19 41 35 47 35 5 0 16 8 23 18 7 10 28 27 45 37 18 11 33
22 33 26 0 3 19 19 42 35 24 16 55 42 70 57 16 15 28 25 28 22 0 -5 43 30 76
62 7 7 16 13 20 13 4 0 12 6 18 13 6 8 65 58 131 113 66 54 122 101 125 104 3
3 34 30 70 60 69 57 98 83 161 140 21 19 57 51 80 70 48 41 161 143 202 182
16 16 31 28 33 28 3 0 26 21 53 48 26 26 97 92 157 147 105 97 828 815 820
815 -2 0 17 22 42 49 68 70 237 252 262 281 22 25 115 130 160 180 14 15 45
51 70 80 25 29 56 65 70 80 14 15 41 47 62 71 20 24 45 54 56 67 11 13 35 41
54 64 18 23 38 46 43 52 10 10 83 100 115 139 8 11 20 24 25 31 20 21 260 324
310 390 28 37 57 75 66 84 8 9 26 33 40 52 13 19 30 42 37 50 17 20 69 88 112
147 19 26 39 51 45 55 5 4 6 8 2 8 -4 0 1 10 12 22 12 12 33 40 48 62 15 23
37 53 48 67 11 15 29 39 40 54 11 16 25 33 31 39 6 6 11 14 12 19 1 4 19 31
40 60 38 52 150 215 272 397 35 52 67 97 70 100 3 3 23 34 44 70 22 36 43 67
46 70 4 3 15 21 26 40 10 19 21 37 24 40 14 14 80 121 80 130 0 5 4 10 10 10
5 0 12 11 16 25 3 14 9 25 13 25 4 0 17 20 29 44 12 24 29 49 37 56 8 7 15 19
15 26 0 8 5 14 10 14 6 0 10 4 10 9 0 8 28 56 80 141 35 55 110 182 110 185 0
2 23 40 50 85 28 45 50 83 50 85 0 2 13 26 29 53 16 27 44 76 62 108 18 33 41
75 52 94 11 19 33 60 50 90 16 30 43 80 60 110 118 212 443 863 557 1115 13
28 42 92 66 143 24 52 44 96 44 99 0 4 12 31 27 62 15 31 28 58 28 61 1 3 8
21 17 40 41 91 184 437 224 540 25 63 51 129 58 145 97 218 494 1380 551 1611
3 11 25 89 50 174 25 85 47 164 49 175 3 11 11 43 20 70 8 28 17 61 20 75 3
14 21 86 41 160 20 74 38 146 41 160 3 14 23 97 45 185 22 88 42 171 44 185
14 71 16 84 20 91 3 4 7 24 11 44 3 21 7 45 9 54 21 89 83 383 90 426 5 37 16
90 20 105 2 8 7 31 10 50 3 19 10 60 16 90 6 30 12 66 14 80 2 14 7 36 9 50 3
13 8 42 11 65 3 22 8 54 12 70 4 17 7 37 8 45 3 21 15 99 21 135 3 17 7 44 10
60 2 17 5 39 8 50 3 18 18 115 21 140 3 24 18 132 21 149 2 10 6 44 9 75 4 31
8 63 10 71 2 8 7 47 11 85 3 39 8 72 9 75 2 3 6 34 10 70 3 36 9 83 11 105 7
56 9 75 29 280 3 33 8 83 10 110 3 28 7 75 10 105 6 56 9 90 22 260 11 128 10
2809 0 2930 -5 52 -10 118 -12 145 -6 67 -13 148 -20 216 -3 31 -7 76 -9 100
-11 119 -18 187 -22 213 -3 16 -7 54 -10 85 -4 50 -28 244 -38 310 -2 14 -7
53 -11 86 -4 32 -9 68 -11 80 -2 11 -6 40 -9 65 -3 25 -8 57 -10 71 -3 14 -7
43 -10 65 -2 21 -7 50 -9 64 -3 14 -7 41 -10 60 -11 73 -17 117 -26 170 -5 30
-12 71 -15 90 -3 19 -10 60 -16 90 -6 30 -12 69 -15 85 -3 17 -9 50 -14 75 -5
25 -12 63 -15 85 -12 71 -16 90 -20 105 -3 8 -7 33 -10 55 -4 22 -8 47 -10 55
-2 8 -7 29 -10 45 -4 28 -9 49 -19 93 -2 9 -14 62 -25 117 -12 55 -24 109 -26
120 -3 11 -8 34 -10 50 -3 17 -8 37 -10 45 -2 8 -7 26 -9 40 -3 14 -13 54 -21
90 -8 36 -18 76 -21 90 -3 14 -23 97 -45 185 -22 88 -42 167 -44 175 -1 8 -8
35 -15 60 -7 25 -14 52 -15 60 -3 15 -26 96 -44 160 -6 19 -12 46 -15 60 -3
14 -12 48 -20 75 -35 118 -67 231 -69 240 -2 6 -6 16 -10 23 -5 6 -6 12 -3 12
3 0 -4 26 -15 58 -11 31 -19 58 -19 60 1 1 -15 55 -35 120 -20 64 -46 146 -57
182 -11 36 -23 74 -28 85 -4 11 -25 72 -45 135 -58 182 -231 669 -283 800 -49
124 -65 164 -66 170 -1 3 -15 39 -31 80 -16 41 -30 77 -30 80 -1 3 -11 26 -23
52 -12 26 -22 50 -22 54 0 6 -26 70 -70 169 -9 22 -28 65 -40 95 -43 103 -48
115 -68 160 -64 147 -116 262 -182 405 -16 36 -44 95 -61 133 -62 136 -353
717 -362 723 -5 3 -8 9 -8 13 1 3 -6 21 -16 39 -9 17 -34 64 -55 102 -20 39
-45 87 -55 108 -10 20 -21 37 -25 37 -5 0 -8 9 -8 20 0 11 -4 20 -10 20 -5 0
-10 4 -10 9 0 5 -19 42 -42 83 -23 40 -50 89 -60 108 -10 19 -22 42 -28 50
-38 61 -110 192 -110 200 0 6 -4 10 -9 10 -5 0 -16 17 -25 38 -9 20 -55 100
-101 177 -47 76 -85 142 -85 146 0 4 -3 9 -7 11 -10 4 -73 107 -73 119 0 5 -4
9 -10 9 -5 0 -10 7 -10 15 0 8 -5 15 -11 15 -5 0 -7 5 -4 10 3 6 2 10 -2 10
-5 0 -27 30 -48 68 -22 37 -47 76 -57 86 -10 11 -18 25 -18 32 0 7 -6 19 -12
26 -7 7 -25 31 -39 53 -128 195 -244 371 -249 375 -3 3 -21 29 -39 58 -19 30
-39 59 -45 66 -6 6 -15 19 -21 28 -25 39 -132 192 -148 211 -10 12 -26 34 -35
50 -9 15 -20 27 -25 27 -4 0 -5 5 -2 10 3 6 2 10 -2 10 -5 0 -22 20 -37 45
-16 25 -33 45 -37 45 -5 0 -9 5 -9 10 0 6 -5 16 -10 23 -12 14 -206 272 -236
312 -36 51 -69 90 -81 98 -7 4 -13 12 -13 18 0 5 -23 38 -50 72 -28 34 -55 67
-60 74 -6 7 -55 69 -110 138 -55 69 -109 134 -120 145 -11 11 -20 23 -20 26 0
3 -6 11 -12 18 -7 7 -29 32 -48 55 -19 23 -44 52 -55 65 -11 13 -40 47 -65 77
-25 29 -53 61 -62 71 -10 10 -18 20 -18 23 0 3 -8 13 -17 23 -23 24 -72 80
-148 167 -33 38 -72 82 -87 96 -16 15 -28 32 -28 39 0 6 -4 8 -10 5 -5 -3 -10
-2 -10 4 0 5 -17 27 -37 49 -21 21 -72 76 -113 122 -253 280 -895 922 -1161
1161 -25 22 -165 149 -215 194 -12 11 -48 43 -79 70 -31 28 -67 59 -79 70 -23
21 -112 98 -156 135 -14 12 -47 40 -74 63 -28 23 -60 52 -73 65 -13 12 -28 22
-33 22 -4 0 -10 3 -12 8 -2 6 -236 201 -293 245 -5 4 -20 15 -32 25 -12 9 -34
26 -48 37 -14 11 -37 30 -50 43 -13 12 -27 22 -30 22 -4 0 -12 6 -19 13 -7 6
-27 23 -45 37 -18 14 -45 34 -59 46 -15 11 -79 60 -142 107 -63 48 -119 90
-125 95 -5 4 -64 47 -130 95 -66 48 -124 91 -130 95 -5 4 -26 19 -45 32 -19
14 -37 28 -40 31 -3 3 -27 20 -55 39 -27 19 -52 36 -55 39 -3 3 -13 11 -22 16
-42 25 -235 160 -255 178 -13 11 -23 17 -23 13 0 -4 -10 2 -22 14 -12 11 -27
20 -34 20 -6 0 -14 7 -18 15 -3 8 -10 15 -17 15 -12 0 -102 61 -107 73 -2 4
-8 7 -13 7 -5 0 -57 32 -115 70 -57 39 -109 70 -114 70 -4 0 -10 4 -12 9 -1 5
-17 17 -35 27 -55 32 -423 258 -472 289 -25 17 -57 36 -71 43 -14 7 -43 24
-65 37 -22 14 -48 28 -57 32 -10 3 -18 8 -18 12 0 3 -15 12 -32 20 -18 8 -49
24 -68 36 -46 28 -122 72 -185 104 -27 14 -52 29 -55 32 -4 5 -69 41 -240 132
-30 16 -120 63 -200 104 -80 42 -164 86 -187 100 -24 13 -43 21 -43 17 0 -3
-7 -1 -15 6 -28 23 -464 234 -760 367 -55 25 -133 60 -172 79 -40 19 -76 34
-80 34 -4 0 -27 9 -52 21 -25 11 -55 24 -66 29 -25 10 -98 42 -147 64 -20 9
-39 16 -42 16 -3 0 -29 11 -58 24 -58 25 -420 170 -428 171 -5 0 -186 69 -225
85 -46 19 -175 65 -420 150 -66 23 -129 45 -140 50 -11 5 -33 11 -50 15 -16 4
-43 13 -60 20 -16 7 -46 18 -65 23 -19 6 -93 29 -165 52 -71 23 -134 43 -140
45 -5 1 -37 10 -70 20 -33 11 -62 19 -65 20 -3 0 -32 9 -65 19 -171 53 -222
68 -293 87 -42 11 -102 27 -132 36 -58 16 -304 82 -330 88 -8 2 -53 13 -100
24 -47 12 -94 23 -105 26 -11 2 -45 11 -75 19 -30 8 -66 17 -80 20 -14 3 -65
15 -115 27 -49 11 -99 22 -110 24 -43 8 -72 15 -130 29 -50 12 -291 62 -385
80 -14 3 -47 9 -75 15 -27 5 -70 12 -95 16 -24 4 -47 8 -50 10 -3 2 -26 6 -50
10 -25 3 -52 8 -61 11 -10 3 -30 6 -45 9 -33 4 -97 15 -128 21 -52 10 -134 24
-161 28 -16 2 -48 7 -70 10 -22 4 -71 11 -110 17 -38 6 -81 13 -95 15 -14 2
-47 7 -74 10 -27 3 -52 7 -55 9 -4 2 -38 6 -76 10 -39 3 -77 8 -85 10 -8 2
-42 7 -75 11 -33 3 -67 8 -75 9 -8 2 -44 6 -80 10 -36 4 -73 9 -82 10 -9 2
-48 7 -85 10 -37 4 -79 8 -93 10 -14 2 -59 7 -100 10 -41 3 -86 8 -100 10 -28
5 -131 14 -205 20 -27 2 -81 6 -120 10 -89 8 -154 13 -280 20 -55 4 -122 8
-150 10 -27 2 -106 6 -175 10 -69 3 -168 9 -220 11 -108 7 -1397 13 -1403 8z"/>
    </g>
</svg>
